<?xml version="1.0" encoding="UTF-8" standalone="no"?>
<!-- Created with Inkscape (http://www.inkscape.org/) -->

<svg
   xmlns:osb="http://www.openswatchbook.org/uri/2009/osb"
   xmlns:dc="http://purl.org/dc/elements/1.1/"
   xmlns:cc="http://creativecommons.org/ns#"
   xmlns:rdf="http://www.w3.org/1999/02/22-rdf-syntax-ns#"
   xmlns:svg="http://www.w3.org/2000/svg"
   xmlns="http://www.w3.org/2000/svg"
   xmlns:sodipodi="http://sodipodi.sourceforge.net/DTD/sodipodi-0.dtd"
   xmlns:inkscape="http://www.inkscape.org/namespaces/inkscape"
   width="210mm"
   height="297mm"
   viewBox="0 0 744.09448819 1052.3622047"
   id="svg2"
   version="1.1"
   inkscape:version="0.91 r13725"
   sodipodi:docname="basicplayer1.svg"
   inkscape:export-filename="C:\Users\16.Tyrel.Davis\Desktop\github\Art\basicplayer1.png"
   inkscape:export-xdpi="90"
   inkscape:export-ydpi="90">
  <defs
     id="defs4">
    <linearGradient
       id="linearGradient4192"
       osb:paint="solid">
      <stop
         style="stop-color:#000000;stop-opacity:1;"
         offset="0"
         id="stop4194" />
    </linearGradient>
  </defs>
  <sodipodi:namedview
     id="base"
     pagecolor="#ffffff"
     bordercolor="#666666"
     borderopacity="1.0"
     inkscape:pageopacity="0.0"
     inkscape:pageshadow="2"
     inkscape:zoom="2"
     inkscape:cx="328.06189"
     inkscape:cy="516.61754"
     inkscape:document-units="px"
     inkscape:current-layer="layer1"
     showgrid="false"
     inkscape:window-width="1920"
     inkscape:window-height="1018"
     inkscape:window-x="-8"
     inkscape:window-y="-8"
     inkscape:window-maximized="1" />
  <metadata
     id="metadata7">
    <rdf:RDF>
      <cc:Work
         rdf:about="">
        <dc:format>image/svg+xml</dc:format>
        <dc:type
           rdf:resource="http://purl.org/dc/dcmitype/StillImage" />
        <dc:title />
      </cc:Work>
    </rdf:RDF>
  </metadata>
  <g
     inkscape:label="Layer 1"
     inkscape:groupmode="layer"
     id="layer1">
    <path
       style="fill:#ffdead;fill-opacity:1;fill-rule:evenodd;stroke:#000000;stroke-width:2.54999995;stroke-linecap:butt;stroke-linejoin:miter;stroke-miterlimit:4;stroke-dasharray:none;stroke-opacity:1"
       d="m 334.22245,438.52961 3.84539,20.9308 5.02148,17.32893 c 3.04803,2.05396 6.82618,2.15544 9.07563,1.56706 2.24941,-0.58839 3.89435,-2.2919 5.37259,-5.4272 l -6.64543,-18.11066 -2.41678,-15.34453"
       id="path4174"
       inkscape:connector-curvature="0"
       sodipodi:nodetypes="cccsccc"
       inkscape:export-xdpi="90"
       inkscape:export-ydpi="90" />
    <g
       id="g4202"
       transform="matrix(0.52549016,0.85079968,-0.85079968,0.52549016,620.1429,-45.285837)"
       inkscape:export-xdpi="90"
       inkscape:export-ydpi="90">
      <g
         id="g4215"
         transform="matrix(0.99955259,0.02991022,-0.02991022,0.99955259,15.578822,-8.4873705)">
        <path
           style="fill:#e6e6e6;fill-opacity:1;fill-rule:evenodd;stroke:#000000;stroke-width:1.11430275px;stroke-linecap:butt;stroke-linejoin:miter;stroke-opacity:1"
           d="m 300.82572,508.27376 0.54145,-16.57255 6.05353,0.19778 9.25012,-6.93396 -8.49344,-2.75368 -3.00921,3.90421 -4.93377,-0.16119 2.93578,-89.85812 -3.50523,-7.14818 -3.96434,6.90414 -2.93578,89.85812 -4.93377,-0.1612 -2.74796,-4.0923 -8.65506,2.19342 8.77779,7.52294 6.05353,0.19778 -0.54144,16.57254 5.0539,0.16513 z"
           id="path5107-5"
           inkscape:connector-curvature="0"
           sodipodi:nodetypes="ccccccccccccccccccc" />
        <path
           style="fill:#800080;fill-rule:evenodd;stroke:#000000;stroke-width:1px;stroke-linecap:butt;stroke-linejoin:miter;stroke-opacity:1"
           d="m 292.75023,485.80483 7.48692,0.24461"
           id="path5163"
           inkscape:connector-curvature="0" />
        <path
           inkscape:connector-curvature="0"
           id="path4211"
           d="m 295.80569,507.5385 c -2.43809,-0.0793 -4.44704,-0.15229 -4.46432,-0.16206 -0.0172,-0.01 0.09,-3.73506 0.23834,-8.27816 0.14836,-4.5431 0.26901,-8.26465 0.26819,-8.27007 -8e-4,-0.006 -1.4469,-0.0573 -3.21317,-0.11509 l -3.2114,-0.10516 -3.81463,-3.26827 c -2.09804,-1.79755 -3.85039,-3.29932 -3.89413,-3.33729 l -0.0798,-0.0687 3.22256,-0.81646 c 1.77241,-0.44906 3.39239,-0.8592 3.59996,-0.91143 l 0.37738,-0.095 1.34262,2.00004 1.34262,2.00001 2.57843,0.0841 c 1.41814,0.0463 2.59606,0.0928 2.61756,0.10443 0.0515,0.0273 7.44777,0.26794 7.50147,0.24452 0.0228,-0.0101 1.20426,0.0202 2.62528,0.0672 l 2.58367,0.0853 0.20193,-0.24904 c 0.1111,-0.13694 0.49749,-0.63405 0.85862,-1.1047 0.86607,-1.12835 1.89898,-2.46326 1.90556,-2.4627 0.0394,0.003 7.02705,2.28385 7.02867,2.2938 7.7e-4,0.007 -1.83921,1.39377 -4.08989,3.08034 l -4.09213,3.0665 -3.16133,-0.10228 c -1.73872,-0.0561 -3.18402,-0.10426 -3.21178,-0.10694 -0.0385,-0.004 -0.11462,1.95565 -0.32082,8.25795 -0.14872,4.54469 -0.27834,8.2744 -0.2885,8.28823 -0.0105,0.0139 -2.01297,-0.0396 -4.45108,-0.11891 z"
           style="opacity:1;fill:#800080;fill-opacity:1;fill-rule:nonzero;stroke:none;stroke-width:0.03125;stroke-miterlimit:4;stroke-dasharray:none;stroke-opacity:1" />
        <path
           inkscape:connector-curvature="0"
           id="path4213"
           d="m 300.00049,507.65015 c -2.62231,-0.0685 -8.55655,-0.26615 -8.61423,-0.28744 -0.0179,-0.007 -0.033,-0.0813 -0.0333,-0.16631 -0.002,-0.52594 0.19138,-6.80088 0.42781,-13.90885 0.0434,-1.30377 0.0762,-2.39454 0.0722,-2.42395 -0.005,-0.0423 -0.67905,-0.0759 -3.21376,-0.16083 -2.47829,-0.083 -3.2221,-0.11978 -3.27159,-0.16201 -2.93674,-2.50467 -7.58584,-6.49263 -7.6269,-6.54228 -0.0544,-0.0657 0.0537,-0.0957 3.48244,-0.96421 1.94618,-0.49299 3.55415,-0.89923 3.57325,-0.90275 0.019,-0.003 0.63779,0.89179 1.37489,1.98959 l 1.34016,1.99599 2.52515,0.0905 c 1.3888,0.0504 2.98649,0.11168 3.55039,0.137 1.30146,0.0585 5.73608,0.19641 6.84325,0.21287 0.46273,0.007 1.77372,0.0433 2.91331,0.0812 l 2.07197,0.0687 0.12541,-0.14072 c 0.069,-0.0774 0.67862,-0.86008 1.35475,-1.73928 0.67613,-0.87919 1.29372,-1.67396 1.37251,-1.76611 l 0.14309,-0.16763 1.69128,0.54969 c 2.98738,0.97094 5.27241,1.7226 5.27443,1.73501 0.002,0.0158 -0.99028,0.76657 -3.91554,2.96122 -1.31055,0.98322 -2.7951,2.09715 -3.29904,2.4754 l -0.91624,0.68773 -0.78926,-0.0218 c -0.43408,-0.0122 -1.86823,-0.058 -3.18697,-0.10212 -1.31873,-0.0441 -2.40529,-0.0706 -2.4146,-0.0578 -0.0342,0.0457 -0.13436,2.63959 -0.34475,8.94447 -0.19816,5.94258 -0.25671,7.54173 -0.27623,7.56654 -0.0104,0.0128 -0.11546,0.0207 -0.23429,0.0177 z"
           style="opacity:1;fill:#800080;fill-opacity:1;fill-rule:nonzero;stroke:none;stroke-width:1;stroke-miterlimit:4;stroke-dasharray:none;stroke-opacity:1" />
      </g>
    </g>
    <path
       style="fill:#ffdead;fill-opacity:1;fill-rule:evenodd;stroke:#000000;stroke-width:2.54999995;stroke-linecap:butt;stroke-linejoin:miter;stroke-miterlimit:4;stroke-dasharray:none;stroke-opacity:1"
       d="m 352.07812,457.78957 5.92614,14.10652 c 1.61273,8.83572 -1.26214,7.64651 -2.56547,4.25029 0,0 -1.15071,7.84188 -3.76913,1.56288 0,0 -1.461,6.10478 -4.01438,0.52804 -2.55338,-5.57674 -9.8e-4,10.2465 -5.21422,-1.85364 -1.4195,-4.62695 -3.1912,-13.73648 -3.60716,-14.36658"
       id="path4208"
       inkscape:connector-curvature="0"
       sodipodi:nodetypes="ccssccc"
       inkscape:export-xdpi="90"
       inkscape:export-ydpi="90" />
    <g
       id="g5046"
       transform="translate(-55.384996,25.355191)"
       inkscape:export-xdpi="90"
       inkscape:export-ydpi="90"
       style="fill:#646464;fill-opacity:1">
      <path
         sodipodi:nodetypes="ccccccc"
         inkscape:connector-curvature="0"
         id="path4239"
         d="m 486.13402,440.13244 -0.1161,-32.36812 -40.48068,-10e-6 -40.48069,0 0.009,32.36812 40.47178,41.61616 z"
         style="fill:#966432;fill-opacity:1;fill-rule:evenodd;stroke:#966432;stroke-width:5;stroke-linecap:butt;stroke-linejoin:miter;stroke-miterlimit:4;stroke-dasharray:none;stroke-opacity:1" />
      <circle
         r="1.016466"
         cy="408.06097"
         cx="405.02423"
         id="path4356"
         style="opacity:1;fill:#646464;fill-opacity:1;fill-rule:nonzero;stroke:#000032;stroke-width:1;stroke-miterlimit:4;stroke-dasharray:none;stroke-opacity:1" />
      <circle
         r="1.016466"
         cy="408.06097"
         cx="418.53061"
         id="path4356-8"
         style="opacity:1;fill:#646464;fill-opacity:1;fill-rule:nonzero;stroke:#000032;stroke-width:1;stroke-miterlimit:4;stroke-dasharray:none;stroke-opacity:1" />
      <circle
         r="1.016466"
         cy="408.06097"
         cx="432.03699"
         id="path4356-0"
         style="opacity:1;fill:#646464;fill-opacity:1;fill-rule:nonzero;stroke:#000032;stroke-width:1;stroke-miterlimit:4;stroke-dasharray:none;stroke-opacity:1" />
      <circle
         r="1.016466"
         cy="408.06097"
         cx="459.04974"
         id="path4356-1"
         style="opacity:1;fill:#646464;fill-opacity:1;fill-rule:nonzero;stroke:#000032;stroke-width:1;stroke-miterlimit:4;stroke-dasharray:none;stroke-opacity:1" />
      <circle
         r="1.016466"
         cy="408.06097"
         cx="472.55612"
         id="path4356-7"
         style="opacity:1;fill:#646464;fill-opacity:1;fill-rule:nonzero;stroke:#000032;stroke-width:1;stroke-miterlimit:4;stroke-dasharray:none;stroke-opacity:1" />
      <circle
         r="1.016466"
         cy="407.68597"
         cx="486.0625"
         id="path4356-2"
         style="opacity:1;fill:#646464;fill-opacity:1;fill-rule:nonzero;stroke:#000032;stroke-width:1;stroke-miterlimit:4;stroke-dasharray:none;stroke-opacity:1" />
      <circle
         r="1.016466"
         cy="439.04727"
         cx="486.0625"
         id="path4356-73"
         style="opacity:1;fill:#646464;fill-opacity:1;fill-rule:nonzero;stroke:#000032;stroke-width:1;stroke-miterlimit:4;stroke-dasharray:none;stroke-opacity:1" />
      <circle
         r="1.016466"
         cy="422.77408"
         cx="486.0625"
         id="path4356-73-4"
         style="opacity:1;fill:#646464;fill-opacity:1;fill-rule:nonzero;stroke:#000032;stroke-width:1;stroke-miterlimit:4;stroke-dasharray:none;stroke-opacity:1" />
      <circle
         r="1.016466"
         cy="439.04727"
         cx="404.89923"
         id="path4356-73-1"
         style="opacity:1;fill:#646464;fill-opacity:1;fill-rule:nonzero;stroke:#000032;stroke-width:1;stroke-miterlimit:4;stroke-dasharray:none;stroke-opacity:1" />
      <circle
         r="1.016466"
         cy="423.00562"
         cx="405.02423"
         id="path4356-73-4-0"
         style="opacity:1;fill:#646464;fill-opacity:1;fill-rule:nonzero;stroke:#000032;stroke-width:1;stroke-miterlimit:4;stroke-dasharray:none;stroke-opacity:1" />
      <circle
         r="1.016466"
         cy="460.59378"
         cx="465.78125"
         id="path4356-2-2"
         style="opacity:1;fill:#646464;fill-opacity:1;fill-rule:nonzero;stroke:#000032;stroke-width:1;stroke-miterlimit:4;stroke-dasharray:none;stroke-opacity:1" />
      <circle
         r="1.016466"
         cy="481.57532"
         cx="445.74042"
         id="path4356-73-2"
         style="opacity:1;fill:#646464;fill-opacity:1;fill-rule:nonzero;stroke:#000032;stroke-width:1;stroke-miterlimit:4;stroke-dasharray:none;stroke-opacity:1" />
      <circle
         r="1.016466"
         cy="471.64703"
         cx="454.89062"
         id="path4356-73-4-2"
         style="opacity:1;fill:#646464;fill-opacity:1;fill-rule:nonzero;stroke:#000032;stroke-width:1;stroke-miterlimit:4;stroke-dasharray:none;stroke-opacity:1" />
      <circle
         r="1.016466"
         cy="450.6655"
         cx="476.04688"
         id="path4356-2-2-4"
         style="opacity:1;fill:#646464;fill-opacity:1;fill-rule:nonzero;stroke:#000032;stroke-width:1;stroke-miterlimit:4;stroke-dasharray:none;stroke-opacity:1" />
      <circle
         transform="scale(-1,1)"
         r="1.016466"
         cy="458.92471"
         cx="-423.9375"
         id="path4356-2-2-44"
         style="opacity:1;fill:#646464;fill-opacity:1;fill-rule:nonzero;stroke:#000032;stroke-width:1;stroke-miterlimit:4;stroke-dasharray:none;stroke-opacity:1" />
      <circle
         transform="scale(-1,1)"
         r="1.016466"
         cy="469.97797"
         cx="-434.82812"
         id="path4356-73-4-2-5"
         style="opacity:1;fill:#646464;fill-opacity:1;fill-rule:nonzero;stroke:#000032;stroke-width:1;stroke-miterlimit:4;stroke-dasharray:none;stroke-opacity:1" />
      <circle
         transform="scale(-1,1)"
         r="1.016466"
         cy="448.99643"
         cx="-413.67188"
         id="path4356-2-2-4-0"
         style="opacity:1;fill:#646464;fill-opacity:1;fill-rule:nonzero;stroke:#000032;stroke-width:1;stroke-miterlimit:4;stroke-dasharray:none;stroke-opacity:1" />
      <path
         sodipodi:nodetypes="cc"
         inkscape:connector-curvature="0"
         id="path4515"
         d="m 445.25,410.2372 0.5,67.875"
         style="fill:#646464;fill-opacity:1;fill-rule:evenodd;stroke:#966432;stroke-width:9;stroke-linecap:butt;stroke-linejoin:miter;stroke-miterlimit:4;stroke-dasharray:none;stroke-opacity:1" />
      <path
         inkscape:connector-curvature="0"
         id="path4517"
         d="m 407.375,438.9872 c 75.875,0 76.125,0.125 76.125,0.125"
         style="fill:#646464;fill-opacity:1;fill-rule:evenodd;stroke:#966432;stroke-width:9;stroke-linecap:butt;stroke-linejoin:miter;stroke-miterlimit:4;stroke-dasharray:none;stroke-opacity:1" />
      <circle
         transform="scale(-1,1)"
         r="1.016466"
         cy="463.48721"
         cx="-445.74042"
         id="path4356-2-2-44-7"
         style="opacity:1;fill:#646464;fill-opacity:1;fill-rule:nonzero;stroke:#000032;stroke-width:1;stroke-miterlimit:4;stroke-dasharray:none;stroke-opacity:1" />
      <circle
         transform="scale(-1,1)"
         r="1.016466"
         cy="439.04727"
         cx="-445.48087"
         id="path4356-2-2-44-6"
         style="opacity:1;fill:#646464;fill-opacity:1;fill-rule:nonzero;stroke:#000032;stroke-width:1;stroke-miterlimit:4;stroke-dasharray:none;stroke-opacity:1" />
      <circle
         transform="scale(-1,1)"
         r="1.016466"
         cy="439.04727"
         cx="-418.42645"
         id="path4356-2-2-44-1"
         style="opacity:1;fill:#646464;fill-opacity:1;fill-rule:nonzero;stroke:#000032;stroke-width:1;stroke-miterlimit:4;stroke-dasharray:none;stroke-opacity:1" />
      <circle
         transform="scale(-1,1)"
         r="1.016466"
         cy="417.48721"
         cx="-445.74042"
         id="path4356-2-2-44-4"
         style="opacity:1;fill:#646464;fill-opacity:1;fill-rule:nonzero;stroke:#000032;stroke-width:1;stroke-miterlimit:4;stroke-dasharray:none;stroke-opacity:1" />
      <circle
         transform="scale(-1,1)"
         r="1.016466"
         cy="439.04727"
         cx="-472.53528"
         id="path4356-2-2-44-8"
         style="opacity:1;fill:#646464;fill-opacity:1;fill-rule:nonzero;stroke:#000032;stroke-width:1;stroke-miterlimit:4;stroke-dasharray:none;stroke-opacity:1" />
      <circle
         transform="scale(-1,1)"
         r="1.016466"
         cy="439.04727"
         cx="-459.00809"
         id="path4356-2-2-44-2"
         style="opacity:1;fill:#646464;fill-opacity:1;fill-rule:nonzero;stroke:#000032;stroke-width:1;stroke-miterlimit:4;stroke-dasharray:none;stroke-opacity:1" />
      <circle
         transform="scale(-1,1)"
         r="1.016466"
         cy="439.04727"
         cx="-431.95364"
         id="path4356-2-2-44-9"
         style="opacity:1;fill:#646464;fill-opacity:1;fill-rule:nonzero;stroke:#000032;stroke-width:1;stroke-miterlimit:4;stroke-dasharray:none;stroke-opacity:1" />
      <circle
         transform="scale(-1,1)"
         r="1.016466"
         cy="427.48721"
         cx="-445.74042"
         id="path4356-2-2-44-3"
         style="opacity:1;fill:#646464;fill-opacity:1;fill-rule:nonzero;stroke:#000032;stroke-width:1;stroke-miterlimit:4;stroke-dasharray:none;stroke-opacity:1" />
      <circle
         transform="scale(-1,1)"
         r="1.016466"
         cy="451.73721"
         cx="-445.74042"
         id="path4356-2-2-44-29"
         style="opacity:1;fill:#646464;fill-opacity:1;fill-rule:nonzero;stroke:#000032;stroke-width:1;stroke-miterlimit:4;stroke-dasharray:none;stroke-opacity:1" />
      <circle
         transform="scale(-1,1)"
         r="1.016466"
         cy="407.73721"
         cx="-445.74042"
         id="path4356-2-2-44-82"
         style="opacity:1;fill:#646464;fill-opacity:1;fill-rule:nonzero;stroke:#000032;stroke-width:1;stroke-miterlimit:4;stroke-dasharray:none;stroke-opacity:1" />
      <circle
         transform="scale(-1,1)"
         r="1.016466"
         cy="474.11221"
         cx="-445.74042"
         id="path4356-2-2-44-87"
         style="opacity:1;fill:#646464;fill-opacity:1;fill-rule:nonzero;stroke:#000032;stroke-width:1;stroke-miterlimit:4;stroke-dasharray:none;stroke-opacity:1" />
      <path
         style="fill:#ffc800;fill-opacity:1;fill-rule:evenodd;stroke:#000000;stroke-width:5;stroke-linecap:butt;stroke-linejoin:miter;stroke-miterlimit:4;stroke-dasharray:none;stroke-opacity:1"
         d="m 437.385,426.63201 0,18.5"
         id="path4339"
         inkscape:connector-curvature="0" />
      <path
         style="fill:none;fill-opacity:1;fill-rule:evenodd;stroke:#000000;stroke-width:5;stroke-linecap:butt;stroke-linejoin:miter;stroke-miterlimit:4;stroke-dasharray:none;stroke-opacity:1"
         d="m 452.76,444.38201 0,-18.5"
         id="path4339-8"
         inkscape:connector-curvature="0" />
    </g>
    <path
       style="fill:#ffdead;fill-opacity:1;fill-rule:evenodd;stroke:#000000;stroke-width:2.54993606px;stroke-linecap:butt;stroke-linejoin:miter;stroke-opacity:1"
       d="m 423.21174,438.24402 -10.63008,28.619 -11.50509,0.119 -19.13893,1.64516 c -3.08638,-1.99587 -4.77637,-4.14672 -5.11915,-6.44643 -0.34275,-2.2997 0.66159,-4.74821 2.96391,-7.33947 l 25.91532,-0.95927 3.13208,-14.87759"
       id="path4174-5"
       inkscape:connector-curvature="0"
       sodipodi:nodetypes="ccccsccc"
       inkscape:export-xdpi="90"
       inkscape:export-ydpi="90" />
    <path
       style="fill:none;fill-rule:evenodd;stroke:#000000;stroke-width:2.54993606px;stroke-linecap:butt;stroke-linejoin:miter;stroke-opacity:1"
       d="m 367.55319,405.1561 -9.7215,-17.15885 -4.27571,-12.17926 c 0,0 2.14243,-10.46086 2.54994,-11.98169 0.40751,-1.52084 4.88032,-11.8112 4.88032,-11.8112 l 10.14727,-8.23482 7.97245,-1.59955 7.97245,1.75895 10.14727,8.07544 c 0,0 4.47281,10.29037 4.88032,11.8112 0.4075,1.52084 2.54994,11.98169 2.54994,11.98169 l -4.27571,12.17926 -9.72151,17.15885 -11.39339,3.43681 z"
       id="path4148"
       inkscape:connector-curvature="0"
       sodipodi:nodetypes="cccscccccsccccc"
       inkscape:export-xdpi="90"
       inkscape:export-ydpi="90" />
    <path
       style="fill:none;fill-rule:evenodd;stroke:#000000;stroke-width:2.54993606px;stroke-linecap:butt;stroke-linejoin:miter;stroke-opacity:1"
       d="m 354.1799,378.41512 -2.07182,1.43434 -3.18742,-2.39056 -2.70931,-7.33107 3.98428,-3.18742 3.8249,3.18742"
       id="path4165"
       inkscape:connector-curvature="0"
       inkscape:export-xdpi="90"
       inkscape:export-ydpi="90" />
    <path
       style="fill:none;fill-rule:evenodd;stroke:#000000;stroke-width:2.54993606px;stroke-linecap:butt;stroke-linejoin:miter;stroke-opacity:1"
       d="m 403.98724,378.41512 2.07182,1.43434 3.18742,-2.39056 2.70931,-7.33107 -3.98427,-3.18742 -3.82491,3.18742"
       id="path4165-7"
       inkscape:connector-curvature="0"
       inkscape:export-xdpi="90"
       inkscape:export-ydpi="90" />
    <path
       style="opacity:1;fill:#ffc800;fill-opacity:1;fill-rule:nonzero;stroke:#ffbe00;stroke-width:0.02390565;stroke-miterlimit:4;stroke-dasharray:none;stroke-opacity:1"
       d="m 356.01489,356.95405 -0.26678,-0.22287 0.32956,-0.12954 0.32955,-0.12953 0,0.35217 c 0,0.19379 -0.0283,0.35217 -0.0627,0.35217 -0.0344,0 -0.18283,-0.10021 -0.32955,-0.22261 z"
       id="path5248"
       inkscape:connector-curvature="0"
       inkscape:export-xdpi="90"
       inkscape:export-ydpi="90" />
    <path
       style="opacity:1;fill:#ffdead;fill-opacity:1;fill-rule:nonzero;stroke:#eddeb3;stroke-width:0.02390565;stroke-miterlimit:4;stroke-dasharray:none;stroke-opacity:1"
       d="m 351.09856,377.44133 c -0.56448,-0.42306 -1.04889,-0.80295 -1.07648,-0.84416 -0.0936,-0.13999 -2.24639,-6.03435 -2.21363,-6.06104 0.0179,-0.0153 0.55966,-0.44696 1.20388,-0.96077 l 1.17129,-0.93424 1.47332,1.22037 c 0.81201,0.6726 1.47555,1.28083 1.47825,1.35506 0.003,0.0742 -0.20782,1.16155 -0.46796,2.41658 l -0.47289,2.28188 0.32497,0.91308 c 0.36063,1.01337 0.37336,0.92716 -0.18564,1.25863 -0.20578,0.12214 -0.22312,0.11321 -1.23511,-0.64539 z"
       id="path5316"
       inkscape:connector-curvature="0"
       inkscape:export-xdpi="90"
       inkscape:export-ydpi="90" />
    <path
       style="opacity:1;fill:#ffdead;fill-opacity:1;fill-rule:nonzero;stroke:#eddeb3;stroke-width:0.02390565;stroke-miterlimit:4;stroke-dasharray:none;stroke-opacity:1"
       d="m 405.7112,378.01165 c -0.16345,-0.11118 -0.2974,-0.25041 -0.2974,-0.30926 0,-0.0589 0.12546,-0.45384 0.27891,-0.87761 0.15326,-0.42375 0.27889,-0.85357 0.27889,-0.95513 0,-0.14637 -0.73471,-3.81001 -0.91566,-4.56599 -0.0359,-0.15019 0.17952,-0.36184 1.44192,-1.41659 0.97269,-0.81262 1.51535,-1.21602 1.57463,-1.17055 0.92336,0.70804 2.24675,1.80505 2.26205,1.87509 0.0102,0.0505 -0.47607,1.43179 -1.08247,3.06951 l -1.10254,2.97767 -1.04716,0.78747 c -0.57593,0.4331 -1.05764,0.78747 -1.07046,0.78747 -0.0127,0 -0.15708,-0.091 -0.32071,-0.20221 z"
       id="path5318"
       inkscape:connector-curvature="0"
       inkscape:export-xdpi="90"
       inkscape:export-ydpi="90" />
    <path
       style="fill:#ffdead;fill-opacity:1;fill-rule:evenodd;stroke:#000000;stroke-width:2.54993606px;stroke-linecap:butt;stroke-linejoin:miter;stroke-opacity:1"
       d="m 370.60774,405.75174 0,8.55189 8.03617,10.24687 8.0362,-10.24687 0,-8.55189"
       id="path5320"
       inkscape:connector-curvature="0"
       sodipodi:nodetypes="ccccc"
       inkscape:export-xdpi="90"
       inkscape:export-ydpi="90" />
    <path
       style="fill:#ffc800;fill-opacity:1;fill-rule:evenodd;stroke:#ffbe00;stroke-width:1px;stroke-linecap:butt;stroke-linejoin:miter;stroke-opacity:1"
       d="m 388.18877,406.45467 6.25,-3 6.25,-8.75 4,-9.5 2,-11.75 -1.75,-7.5 -1,-7.25 -2.1875,-1.75 1.125,-2.25 -2.125,-1.0625 0.8125,-2.3125 c -0.29375,-1.39458 -7.28311,-2.55154 -3.74609,-3.17188 1.09643,-0.19229 -1.92579,0.0469 -3.03516,-1.01562 -0.55469,-0.53125 0.25586,-2.45703 -0.72607,-2.73047 -0.98194,-0.27344 -2.11127,0.75352 -2.16846,0.12109 -0.27221,-3.01017 -1.52856,-0.98438 -1.69922,-1.32812 -0.47643,-0.95961 -1.94963,2.77033 -1.1749,-1.19531 0.14496,-0.74206 -2.94856,-0.60026 -4.96605,-0.74219 -0.42427,-0.0299 -2.15948,-2.32099 -3.60666,-1.08594 -0.7669,0.65449 -1.59678,-0.47656 -1.59678,-0.47656 -1.22459,1.42595 -2.66471,1.1478 -3.08599,0.27015 -1.25749,-2.61978 -2.13123,-0.13303 -2.83342,0.64908 -0.71629,0.79783 -1.1343,2.57455 -2.7098,1.06447 -0.64823,-0.6213 -1.69059,3.12329 -2.71517,1.5163 -0.7378,-1.15719 -0.66003,2.51579 -1.99241,1.62112 -1.70613,-1.14563 -2.53684,1.36159 -3.20918,2.9796 -0.89914,2.16382 -3.43014,-0.9756 -2.98338,2.86674 0.12822,1.10273 -1.31503,1.28254 -1.31503,1.28254 -0.73457,-0.35047 -1.15998,0.041 -1.0625,1.6875 -2.7698,-1.22297 -2.06015,0.12583 -1.0625,1.6875 -1.58391,-0.15485 -1.45256,0.69087 -1.0625,1.6875 -3.52223,-0.67718 -0.93811,1.03509 -1.0625,1.6875 -3.05745,3.27692 -0.7684,4.86546 -1,7.25 l -1.75,7.5 2,11.75 4,9.5 6.25,8.75 6.25,3 9.34438,8.75 z"
       id="path4290-9"
       inkscape:connector-curvature="0"
       sodipodi:nodetypes="cccccccccccsssssssscsssssssccccccccccccc" />
    <rect
       style="opacity:1;fill:#ffc800;fill-opacity:1;fill-rule:nonzero;stroke:#969696;stroke-width:5;stroke-miterlimit:4;stroke-dasharray:none;stroke-opacity:1"
       id="rect4358"
       width="0.625"
       height="18.375"
       x="381.625"
       y="451.48721" />
    <path
       style="fill:#ffdead;fill-opacity:1;fill-rule:evenodd;stroke:#000000;stroke-width:2.54999995;stroke-linecap:butt;stroke-linejoin:miter;stroke-miterlimit:4;stroke-dasharray:none;stroke-opacity:1"
       d="m 396.03799,469.47466 -15.2674,1.00984 c -8.87931,-1.35224 -6.8188,-3.68321 -3.18329,-3.80964 0,0 -7.03981,-3.64145 -0.2504,-4.07261 0,0 -5.29635,-3.36921 0.80789,-3.96754 6.10424,-0.59834 -9.68776,-3.33738 3.45046,-4.32648 4.83701,0.16448 14.02698,1.45557 14.75818,1.26745"
       id="path4208-5"
       inkscape:connector-curvature="0"
       sodipodi:nodetypes="ccssccc"
       inkscape:export-xdpi="90"
       inkscape:export-ydpi="90" />
    <rect
       style="opacity:1;fill:#ffc800;fill-opacity:1;fill-rule:nonzero;stroke:#969696;stroke-width:5;stroke-miterlimit:4;stroke-dasharray:none;stroke-opacity:1"
       id="rect4360"
       width="1.75"
       height="23.25"
       x="395.75"
       y="450.23721" />
    <path
       style="fill:#c8c8c8;fill-opacity:1;fill-rule:evenodd;stroke:#000000;stroke-width:2.54993606px;stroke-linecap:butt;stroke-linejoin:miter;stroke-opacity:1"
       d="m 371.15653,414.30295 -24.14659,0 -8.03485,6.74361 -5.53262,16.02935 16.03918,0.97515 4.03088,-8.87311 5.81551,31.9035 19.01985,0 19.01984,0 5.81552,-31.9035 4.03088,8.87311 16.03918,-0.97515 -5.53262,-16.02935 -8.03485,-6.74361 -24.1466,0"
       id="path5370"
       inkscape:connector-curvature="0"
       sodipodi:nodetypes="ccccccccccccccc"
       inkscape:export-xdpi="90"
       inkscape:export-ydpi="90" />
    <path
       style="fill:#ac9d93;fill-rule:evenodd;stroke:#000000;stroke-width:1.3170625px;stroke-linecap:butt;stroke-linejoin:miter;stroke-opacity:1"
       d="m 357.75491,461.4611 -9.25296,68.61404 -14.265,1.12481 2.69879,5.62411 18.12039,1.12481 22.98506,-55.39556 23.59846,55.39578 18.12039,-1.1248 2.69879,-5.62412 -14.26499,-1.12481 -9.25297,-68.61403"
       id="path4191"
       inkscape:connector-curvature="0"
       sodipodi:nodetypes="ccccccccccc"
       inkscape:export-xdpi="90"
       inkscape:export-ydpi="90" />
    <path
       style="fill:#784421;fill-opacity:1;fill-rule:evenodd;stroke:#000000;stroke-width:1.3170625px;stroke-linecap:butt;stroke-linejoin:miter;stroke-opacity:1"
       d="m 398.05615,529.79885 9.83128,-1.96843 14.8433,0 0.57831,2.24963 -3.27709,6.74893 -18.6987,1.40602 z"
       id="path4212-7"
       inkscape:connector-curvature="0"
       inkscape:export-xdpi="90"
       inkscape:export-ydpi="90" />
    <path
       style="fill:#784421;fill-opacity:1;fill-rule:evenodd;stroke:#000000;stroke-width:1.3170625px;stroke-linecap:butt;stroke-linejoin:miter;stroke-opacity:1"
       d="m 358.31249,529.10795 -9.83128,-1.96842 -14.8433,0 -0.57832,2.24964 3.27709,6.74892 18.6987,1.40602 z"
       id="path4212"
       inkscape:connector-curvature="0"
       inkscape:export-xdpi="90"
       inkscape:export-ydpi="90" />
  </g>
</svg>
