<?xml version="1.0" encoding="UTF-8" standalone="no"?>
<!-- Created with Inkscape (http://www.inkscape.org/) -->

<svg
   xmlns:osb="http://www.openswatchbook.org/uri/2009/osb"
   xmlns:dc="http://purl.org/dc/elements/1.1/"
   xmlns:cc="http://creativecommons.org/ns#"
   xmlns:rdf="http://www.w3.org/1999/02/22-rdf-syntax-ns#"
   xmlns:svg="http://www.w3.org/2000/svg"
   xmlns="http://www.w3.org/2000/svg"
   xmlns:xlink="http://www.w3.org/1999/xlink"
   xmlns:sodipodi="http://sodipodi.sourceforge.net/DTD/sodipodi-0.dtd"
   xmlns:inkscape="http://www.inkscape.org/namespaces/inkscape"
   width="210mm"
   height="297mm"
   viewBox="0 0 744.09448819 1052.3622047"
   id="svg2"
   version="1.1"
   inkscape:version="0.91 r13725"
   sodipodi:docname="player object.svg">
  <defs
     id="defs4">
    <linearGradient
       id="linearGradient4334"
       osb:paint="solid">
      <stop
         style="stop-color:#966432;stop-opacity:1;"
         offset="0"
         id="stop4336" />
    </linearGradient>
    <linearGradient
       id="linearGradient4192"
       osb:paint="solid">
      <stop
         style="stop-color:#000000;stop-opacity:1;"
         offset="0"
         id="stop4194" />
    </linearGradient>
    <linearGradient
       inkscape:collect="always"
       xlink:href="#linearGradient4192"
       id="linearGradient4196"
       x1="370.81279"
       y1="418.45417"
       x2="376.97608"
       y2="418.45417"
       gradientUnits="userSpaceOnUse" />
    <linearGradient
       gradientTransform="matrix(-1,0,0,1,755.13626,0.11696098)"
       inkscape:collect="always"
       xlink:href="#linearGradient4192"
       id="linearGradient4196-4"
       x1="370.81281"
       y1="418.45416"
       x2="376.97607"
       y2="418.45416"
       gradientUnits="userSpaceOnUse" />
  </defs>
  <sodipodi:namedview
     id="base"
     pagecolor="#ffffff"
     bordercolor="#666666"
     borderopacity="1.0"
     inkscape:pageopacity="0.0"
     inkscape:pageshadow="2"
     inkscape:zoom="8.0000002"
     inkscape:cx="415.03483"
     inkscape:cy="617.87738"
     inkscape:document-units="px"
     inkscape:current-layer="layer1"
     showgrid="false"
     showguides="false"
     inkscape:window-width="1920"
     inkscape:window-height="1018"
     inkscape:window-x="-8"
     inkscape:window-y="-8"
     inkscape:window-maximized="1" />
  <metadata
     id="metadata7">
    <rdf:RDF>
      <cc:Work
         rdf:about="">
        <dc:format>image/svg+xml</dc:format>
        <dc:type
           rdf:resource="http://purl.org/dc/dcmitype/StillImage" />
        <dc:title />
      </cc:Work>
    </rdf:RDF>
  </metadata>
  <g
     inkscape:label="Layer 1"
     inkscape:groupmode="layer"
     id="layer1">
    <path
       style="fill:none;fill-rule:evenodd;stroke:#000000;stroke-width:2.54993606px;stroke-linecap:butt;stroke-linejoin:miter;stroke-opacity:1"
       d="m 395.79364,391.14227 -9.7215,-17.15885 -4.27571,-12.17926 c 0,0 2.14243,-10.46086 2.54994,-11.98169 0.40751,-1.52084 4.88032,-11.8112 4.88032,-11.8112 l 10.14727,-8.23482 7.97245,-1.59955 7.97245,1.75895 10.14727,8.07544 c 0,0 4.47281,10.29037 4.88032,11.8112 0.4075,1.52084 2.54994,11.98169 2.54994,11.98169 l -4.27571,12.17926 -9.72151,17.15885 -11.39339,3.43681 z"
       id="path4148"
       inkscape:connector-curvature="0"
       sodipodi:nodetypes="cccscccccsccccc" />
    <path
       style="fill:none;fill-rule:evenodd;stroke:#000000;stroke-width:2.54993606px;stroke-linecap:butt;stroke-linejoin:miter;stroke-opacity:1"
       d="m 382.42035,364.40129 -2.07182,1.43434 -3.18742,-2.39056 -2.70931,-7.33107 3.98428,-3.18742 3.8249,3.18742"
       id="path4165"
       inkscape:connector-curvature="0" />
    <path
       style="fill:none;fill-rule:evenodd;stroke:#000000;stroke-width:2.54993606px;stroke-linecap:butt;stroke-linejoin:miter;stroke-opacity:1"
       d="m 432.22769,364.40129 2.07182,1.43434 3.18742,-2.39056 2.70931,-7.33107 -3.98427,-3.18742 -3.82491,3.18742"
       id="path4165-7"
       inkscape:connector-curvature="0" />
    <g
       id="g4234"
       transform="matrix(2.549936,0,0,2.549936,-556.08076,-713.05262)">
      <path
         sodipodi:nodetypes="cccccccc"
         inkscape:connector-curvature="0"
         id="path4190"
         d="m 375.5625,419.1747 -0.35937,-1.01563 -1.10938,-0.45312 -2.21875,0.0312 -0.46875,0.9375 0.375,0.6875 1.875,0.32813 z"
         style="fill:none;fill-rule:evenodd;stroke:url(#linearGradient4196);stroke-width:0.30000001;stroke-linecap:butt;stroke-linejoin:miter;stroke-miterlimit:4;stroke-dasharray:none;stroke-opacity:1" />
      <ellipse
         ry="0.68500972"
         rx="0.70094013"
         cy="418.66193"
         cx="373.60159"
         id="path4200"
         style="opacity:1;fill:#541ede;fill-opacity:1;fill-rule:nonzero;stroke:none;stroke-width:0.30000001;stroke-miterlimit:4;stroke-dasharray:none;stroke-opacity:1" />
      <circle
         r="0.27621359"
         cy="418.66193"
         cx="373.60159"
         id="path4202"
         style="opacity:1;fill:#000000;fill-opacity:1;fill-rule:nonzero;stroke:none;stroke-width:0.30000001;stroke-miterlimit:4;stroke-dasharray:none;stroke-opacity:1" />
    </g>
    <g
       id="g4239"
       transform="matrix(2.549936,0,0,2.549936,-554.80408,-713.35089)">
      <path
         sodipodi:nodetypes="cccccccc"
         inkscape:connector-curvature="0"
         id="path4190-9"
         d="m 379.57376,419.29167 0.35937,-1.01563 1.10938,-0.45312 2.21875,0.0312 0.46875,0.9375 -0.375,0.6875 -1.875,0.32813 z"
         style="fill:none;fill-rule:evenodd;stroke:url(#linearGradient4196-4);stroke-width:0.30000001;stroke-linecap:butt;stroke-linejoin:miter;stroke-miterlimit:4;stroke-dasharray:none;stroke-opacity:1" />
      <ellipse
         transform="scale(-1,1)"
         ry="0.68500972"
         rx="0.70094013"
         cy="418.7789"
         cx="-381.53467"
         id="path4200-1"
         style="opacity:1;fill:#541ede;fill-opacity:1;fill-rule:nonzero;stroke:none;stroke-width:0.30000001;stroke-miterlimit:4;stroke-dasharray:none;stroke-opacity:1" />
      <circle
         transform="scale(-1,1)"
         r="0.27621359"
         cy="418.7789"
         cx="-381.53467"
         id="path4202-2"
         style="opacity:1;fill:#000000;fill-opacity:1;fill-rule:nonzero;stroke:none;stroke-width:0.30000001;stroke-miterlimit:4;stroke-dasharray:none;stroke-opacity:1" />
    </g>
    <path
       style="fill:#ffc800;fill-opacity:1;fill-rule:evenodd;stroke:#ffbe00;stroke-width:2.54993606px;stroke-linecap:butt;stroke-linejoin:miter;stroke-opacity:1"
       d="m 384.81092,343.62457 c -0.31874,0.31874 0.0796,-4.62176 0.0796,-4.62176 l 2.23119,-3.26711 1.99214,-2.07182 -0.47812,-2.31088 2.07183,0.5578 1.51402,-0.95623 1.03591,-2.15151 2.07183,0.15938 2.62962,-1.35466 1.99213,-1.27497 2.15151,0.15937 0.95623,-1.03591 c 0,0 2.78899,0.71717 2.78899,0.39843 0,-0.31874 1.1156,-2.07182 1.19528,-1.75308 0.0796,0.31874 3.82491,1.35465 3.82491,1.35465 0,0 -0.15937,1.91246 0.23893,1.83277 0.39842,-0.0796 2.31088,-0.95623 2.31088,-0.95623 l 2.07182,1.43434 2.47025,0.39843 3.18742,0.79686 1.03591,1.27496 2.94836,1.6734 1.51403,3.42648 2.62962,0.87654 1.03591,2.31088 0.71717,2.39056 -0.5578,1.99214 0.0796,1.99214 c 0,0 -3.10773,-1.03592 -3.66553,-1.19529 -0.5578,-0.15937 -2.31088,-1.83276 -2.62962,-1.91245 -0.31875,-0.0796 -4.22333,1.51403 -4.22333,1.51403 l -4.14365,-2.15151 -2.86868,1.99213 -2.86868,-3.42647 -1.75308,2.78899 -3.10773,-0.47811 -2.47025,1.51402 -0.95623,-1.67339 -1.99214,0.15937 -2.31088,1.67339 -0.55779,-0.63748 -2.39057,0.31874 -1.91245,0.39843 -1.43434,0.95622 -0.71717,-0.15937 -1.51402,-1.11559 -2.2312,2.54993 -1.83276,3.10774 c 0,0 -2.31088,-0.47812 -2.2312,-0.79686 0.0796,-0.31874 0.79686,-2.31088 0.79686,-2.31088 z"
       id="path5246"
       inkscape:connector-curvature="0" />
    <path
       style="opacity:1;fill:#ffc800;fill-opacity:1;fill-rule:nonzero;stroke:#ffbe00;stroke-width:0.02390565;stroke-miterlimit:4;stroke-dasharray:none;stroke-opacity:1"
       d="m 384.25534,342.94022 -0.26678,-0.22287 0.32956,-0.12954 0.32955,-0.12953 0,0.35217 c 0,0.19379 -0.0283,0.35217 -0.0627,0.35217 -0.0344,0 -0.18283,-0.10021 -0.32955,-0.22261 z"
       id="path5248"
       inkscape:connector-curvature="0" />
    <path
       style="fill:none;fill-rule:evenodd;stroke:#edc9b0;stroke-width:2.54993606px;stroke-linecap:butt;stroke-linejoin:miter;stroke-opacity:1"
       d="m 419.14476,379.7221 -3.58585,-1.19528 -4.06396,-0.63749 -3.93911,-0.0796 -3.93915,0.0796 -4.06396,0.63749 -3.58584,1.19528"
       id="path5276-5"
       inkscape:connector-curvature="0"
       sodipodi:nodetypes="ccccccc" />
    <path
       style="fill:none;fill-rule:evenodd;stroke:#000000;stroke-width:1.17986631;stroke-linecap:butt;stroke-linejoin:miter;stroke-miterlimit:4;stroke-dasharray:none;stroke-opacity:1"
       d="m 408.46221,358.1721 -2.58094,3.4413 -2.08934,4.79319 1.59771,1.22904 2.70388,0.24581"
       id="path5293"
       inkscape:connector-curvature="0" />
    <path
       style="opacity:1;fill:#ffdead;fill-opacity:1;fill-rule:nonzero;stroke:#eddeb3;stroke-width:0.02390565;stroke-miterlimit:4;stroke-dasharray:none;stroke-opacity:1"
       d="m 379.33901,363.4275 c -0.56448,-0.42306 -1.04889,-0.80295 -1.07648,-0.84416 -0.0936,-0.13999 -2.24639,-6.03435 -2.21363,-6.06104 0.0179,-0.0153 0.55966,-0.44696 1.20388,-0.96077 l 1.17129,-0.93424 1.47332,1.22037 c 0.81201,0.6726 1.47555,1.28083 1.47825,1.35506 0.003,0.0742 -0.20782,1.16155 -0.46796,2.41658 l -0.47289,2.28188 0.32497,0.91308 c 0.36063,1.01337 0.37336,0.92716 -0.18564,1.25863 -0.20578,0.12214 -0.22312,0.11321 -1.23511,-0.64539 z"
       id="path5316"
       inkscape:connector-curvature="0" />
    <path
       style="opacity:1;fill:#ffdead;fill-opacity:1;fill-rule:nonzero;stroke:#eddeb3;stroke-width:0.02390565;stroke-miterlimit:4;stroke-dasharray:none;stroke-opacity:1"
       d="m 433.95165,363.99782 c -0.16345,-0.11118 -0.2974,-0.25041 -0.2974,-0.30926 0,-0.0589 0.12546,-0.45384 0.27891,-0.87761 0.15326,-0.42375 0.27889,-0.85357 0.27889,-0.95513 0,-0.14637 -0.73471,-3.81001 -0.91566,-4.56599 -0.0359,-0.15019 0.17952,-0.36184 1.44192,-1.41659 0.97269,-0.81262 1.51535,-1.21602 1.57463,-1.17055 0.92336,0.70804 2.24675,1.80505 2.26205,1.87509 0.0102,0.0505 -0.47607,1.43179 -1.08247,3.06951 l -1.10254,2.97767 -1.04716,0.78747 c -0.57593,0.4331 -1.05764,0.78747 -1.07046,0.78747 -0.0127,0 -0.15708,-0.091 -0.32071,-0.20221 z"
       id="path5318"
       inkscape:connector-curvature="0" />
    <path
       style="fill:#c8c8c8;fill-opacity:1;fill-rule:evenodd;stroke:#000000;stroke-width:2.54993606px;stroke-linecap:butt;stroke-linejoin:miter;stroke-opacity:1"
       d="m 399.39698,400.28912 -24.14659,0 -8.03485,6.74361 -5.53262,16.02935 16.03918,0.97515 4.03088,-8.87311 5.81551,31.9035 19.01985,0 19.01984,0 5.81552,-31.9035 4.03088,8.87311 16.03918,-0.97515 -5.53262,-16.02935 -8.03485,-6.74361 -24.1466,0"
       id="path5370"
       inkscape:connector-curvature="0"
       sodipodi:nodetypes="ccccccccccccccc" />
    <path
       style="fill:#ffdead;fill-opacity:1;fill-rule:evenodd;stroke:#000000;stroke-width:2.54993606px;stroke-linecap:butt;stroke-linejoin:miter;stroke-opacity:1"
       d="m 398.84819,391.73791 0,8.55189 8.03617,10.24687 8.0362,-10.24687 0,-8.55189"
       id="path5320"
       inkscape:connector-curvature="0"
       sodipodi:nodetypes="ccccc" />
    <path
       style="opacity:1;fill:#ffdead;fill-opacity:1;fill-rule:nonzero;stroke:#eddeb3;stroke-width:0.02390565;stroke-miterlimit:4;stroke-dasharray:none;stroke-opacity:1"
       d="m 402.06485,391.62102 c -4.62461,-1.36182 -5.35149,-1.59642 -5.472,-1.76601 -0.0765,-0.10761 -2.20641,-3.84984 -4.73327,-8.31613 l -4.5943,-8.12053 -2.05471,-5.85567 -2.05471,-5.85565 0.27383,-1.32342 c 0.42913,-2.07404 1.75048,-8.34749 1.90435,-9.04146 0.0762,-0.34432 0.18079,-0.66811 0.2323,-0.71954 0.0515,-0.0515 0.58916,-0.93514 1.19497,-1.96376 0.83465,-1.41722 1.26482,-2.05792 1.77596,-2.64507 0.38264,-0.43953 0.71283,-0.75269 0.76309,-0.7237 0.0487,0.0281 0.21904,0.15249 0.37872,0.27659 0.21037,0.16346 0.50766,0.27234 1.08211,0.39596 l 0.79196,0.17033 0.83092,-0.55746 c 0.76376,-0.51244 0.89524,-0.57126 1.62719,-0.72811 0.43796,-0.0938 1.17058,-0.22185 1.62801,-0.28432 l 0.83174,-0.11373 0.31527,0.35817 c 0.1734,0.19685 0.37283,0.4266 0.44323,0.51027 0.12317,0.14636 0.18309,0.11219 1.60215,-0.91839 1.15846,-0.84122 1.54651,-1.08166 1.81189,-1.12258 0.18563,-0.0286 0.38295,-0.0344 0.43825,-0.0128 0.0553,0.0204 0.34664,0.474 0.64736,1.00577 0.30074,0.53176 0.57911,0.98682 0.61861,1.01123 0.0395,0.0255 0.74371,-0.36827 1.5649,-0.87262 0.82118,-0.50437 1.54684,-0.93669 1.61258,-0.96071 0.0658,-0.0229 0.88439,0.0752 1.8192,0.22057 l 1.69966,0.26425 0.25698,-0.4046 c 0.14126,-0.22261 0.41638,-0.66423 0.61122,-0.98157 0.19481,-0.31734 0.37741,-0.56836 0.40574,-0.5578 0.0283,0.0102 0.58065,0.65566 1.22736,1.4336 0.64672,0.77793 1.20959,1.41442 1.25082,1.41442 0.0413,0 0.77424,-0.48466 1.62888,-1.07704 l 1.5539,-1.07704 2.00458,1.0315 2.00459,1.0315 0.51794,-0.22159 c 0.8194,-0.35034 3.31805,-1.28122 3.43762,-1.28068 0.0597,2.5e-4 0.46161,0.28406 0.89334,0.63065 0.82218,0.66008 1.50485,1.06664 1.94849,1.16048 0.30892,0.0653 0.27557,-0.001 1.41077,2.82336 0.42005,1.04525 0.86351,2.30053 0.99009,2.80266 0.18921,0.75091 1.4362,6.59743 2.16745,10.16264 l 0.18181,0.88618 -2.02065,5.76758 c -1.11136,3.17214 -2.07401,5.87512 -2.13924,6.0066 -0.26558,0.53536 -9.28307,16.42189 -9.36778,16.50367 -0.0859,0.0831 -10.40952,3.22659 -10.54661,3.21152 -0.0349,-0.005 -2.46336,-0.71368 -5.39653,-1.57742 z m -3.7511,-11.30219 c 1.35381,-0.45524 1.72482,-0.54331 3.50616,-0.83235 l 1.99214,-0.32323 3.74521,-9.6e-4 3.74522,-10e-4 2.03197,0.32611 c 1.87387,0.30074 2.16191,0.36967 3.70187,0.88582 0.91841,0.30783 1.69387,0.53302 1.72322,0.5004 0.0852,-0.0946 0.81088,-2.33638 0.76978,-2.37751 -0.0204,-0.0204 -0.83995,-0.30566 -1.82114,-0.63381 -1.72376,-0.57651 -1.86135,-0.60877 -4.07789,-0.95554 l -2.29394,-0.35887 -3.78092,0 -3.78095,0 -2.26342,0.35821 c -2.18535,0.34585 -2.32626,0.37928 -4.08502,0.96898 -1.00187,0.33593 -1.8343,0.62144 -1.8498,0.6345 -0.026,0.0229 0.68435,2.22941 0.76097,2.36481 0.0467,0.0826 0.24148,0.0278 1.97654,-0.55556 l 0,0 z m 9.79048,-12.18563 c 0.0278,-0.20323 0.0507,-0.4836 0.0507,-0.6228 l 0,-0.2532 -1.016,-0.0949 c -0.55879,-0.052 -1.11537,-0.0946 -1.23682,-0.0943 -0.14458,2.5e-4 -0.40592,-0.14254 -0.75702,-0.41368 -0.29488,-0.22771 -0.54643,-0.42028 -0.55898,-0.42788 -0.0127,-0.008 0.3967,-0.97693 0.90947,-2.15408 l 0.93228,-2.14026 1.26196,-1.68191 c 0.69409,-0.92505 1.26196,-1.70142 1.26196,-1.72529 0,-0.0638 -0.85703,-0.70001 -0.94296,-0.70001 -0.0403,0 -0.6573,0.77837 -1.3711,1.72972 l -1.29784,1.72973 -1.14521,2.6247 c -0.62983,1.44359 -1.13495,2.65392 -1.12248,2.68964 0.0127,0.0357 0.48487,0.42077 1.04973,0.85566 l 1.02699,0.79071 1.16435,0.0954 c 0.64039,0.0525 1.20021,0.10761 1.24404,0.12265 0.0439,0.0153 0.1734,0.0301 0.28799,0.0334 0.1887,0.005 0.21317,-0.0286 0.25897,-0.36341 z m -7.7386,-11.54971 c 0.95324,-0.25642 1.73316,-0.49027 1.73316,-0.51967 0,-0.0293 -0.24657,-0.7478 -0.5477,-1.59644 l -0.54772,-1.54299 -1.46435,-0.61214 -1.46433,-0.61214 -2.66948,-0.005 c -1.4682,-0.003 -2.86016,0.0178 -3.09325,0.0462 l -0.42377,0.051 -0.67188,1.34203 c -0.36957,0.7381 -0.67191,1.37564 -0.67191,1.41674 0,0.041 0.2504,0.53454 0.55619,1.09655 l 0.55617,1.02184 2.53162,0.44465 2.53166,0.44464 0.95622,-0.25449 c 0.52593,-0.13999 1.73615,-0.46439 2.68937,-0.72084 z m 20.32095,0.49296 2.31646,-0.40684 0.58116,-1.06159 0.58113,-1.06162 -0.6905,-1.3837 c -0.49211,-0.98611 -0.73734,-1.39629 -0.85346,-1.42748 -0.0895,-0.0229 -1.46833,-0.0444 -3.06383,-0.0449 l -2.90088,-10e-4 -1.49314,0.60745 -1.49312,0.60744 -0.5672,1.59639 c -0.31196,0.87799 -0.55788,1.60192 -0.54648,1.60873 0.0102,0.008 1.22198,0.33741 2.69018,0.73469 1.71218,0.46327 2.75082,0.70742 2.89635,0.6808 0.12469,-0.0229 1.26928,-0.22465 2.54333,-0.44833 z"
       id="path5314"
       inkscape:connector-curvature="0" />
    <path
       style="fill:#ac9d93;fill-rule:evenodd;stroke:#000000;stroke-width:1.3170625px;stroke-linecap:butt;stroke-linejoin:miter;stroke-opacity:1"
       d="m 385.99536,447.44727 -9.25296,68.61404 -14.265,1.12481 2.69879,5.62411 18.12039,1.12481 22.98506,-55.39556 23.59846,55.39578 18.12039,-1.1248 2.69879,-5.62412 -14.26499,-1.12481 -9.25297,-68.61403"
       id="path4191"
       inkscape:connector-curvature="0"
       sodipodi:nodetypes="ccccccccccc" />
    <path
       style="fill:#784421;fill-opacity:1;fill-rule:evenodd;stroke:#000000;stroke-width:1.3170625px;stroke-linecap:butt;stroke-linejoin:miter;stroke-opacity:1"
       d="m 386.55294,515.09412 -9.83128,-1.96842 -14.8433,0 -0.57832,2.24964 3.27709,6.74892 18.6987,1.40602 z"
       id="path4212"
       inkscape:connector-curvature="0" />
    <path
       style="fill:#784421;fill-opacity:1;fill-rule:evenodd;stroke:#000000;stroke-width:1.3170625px;stroke-linecap:butt;stroke-linejoin:miter;stroke-opacity:1"
       d="m 426.2966,515.78502 9.83128,-1.96843 14.8433,0 0.57831,2.24963 -3.27709,6.74893 -18.6987,1.40602 z"
       id="path4212-7"
       inkscape:connector-curvature="0" />
    <path
       style="fill:#ffdead;fill-opacity:1;fill-rule:evenodd;stroke:#000000;stroke-width:2.54993606px;stroke-linecap:butt;stroke-linejoin:miter;stroke-opacity:1"
       d="m 449.96426,424.35431 1.49256,17.58826 -0.90034,17.71759 c -2.45609,2.73438 -4.84579,4.06537 -7.1708,4.04249 -2.32498,-0.0229 -4.58524,-1.39955 -6.7825,-4.08048 l 2.59755,-19.24625 -2.64102,-15.23643"
       id="path4174-5"
       inkscape:connector-curvature="0"
       sodipodi:nodetypes="cccsccc" />
    <g
       id="g5046"
       transform="translate(0.91317068,10.477922)">
      <path
         sodipodi:nodetypes="cccsccc"
         inkscape:connector-curvature="0"
         id="path4174-2"
         d="m 450.73441,423.6419 1.49256,17.58826 -0.90034,17.71759 c -2.45609,2.73438 -4.84579,4.06537 -7.1708,4.04249 -2.32497,-0.0229 -4.58523,-1.39955 -6.78249,-4.08048 l 2.59755,-19.24625 -2.64102,-15.23643"
         style="fill:none;fill-rule:evenodd;stroke:#000000;stroke-width:2.54993606px;stroke-linecap:butt;stroke-linejoin:miter;stroke-opacity:1" />
      <path
         inkscape:connector-curvature="0"
         id="path4210"
         d="m 443.18577,461.52676 c -1.02471,-0.26366 -2.24539,-0.9916 -3.31961,-1.97961 l -1.07698,-0.99055 1.27806,-9.45785 1.27807,-9.45785 -1.23777,-7.13629 c -0.68078,-3.92497 -1.17912,-7.18583 -1.10744,-7.24636 0.13602,-0.11485 10.2995,-0.75305 10.39953,-0.65303 0.0314,0.0314 0.37599,3.79635 0.76566,8.36646 l 0.7085,8.3093 -0.43442,8.56569 -0.43442,8.56569 -1.01784,0.93491 c -1.81798,1.66988 -4.24226,2.58065 -5.80134,2.17949 z"
         style="opacity:1;fill:#ffdead;fill-opacity:1;fill-rule:nonzero;stroke:#eddeb3;stroke-width:0.05303301;stroke-miterlimit:4;stroke-dasharray:none;stroke-opacity:1" />
      <path
         sodipodi:nodetypes="ccccccc"
         inkscape:connector-curvature="0"
         id="path4239"
         d="m 486.13402,440.13244 -0.1161,-32.36812 -40.48068,-10e-6 -40.48069,0 0.009,32.36812 40.47178,41.61616 z"
         style="fill:#646464;fill-opacity:1;fill-rule:evenodd;stroke:#966432;stroke-width:5;stroke-linecap:butt;stroke-linejoin:miter;stroke-miterlimit:4;stroke-dasharray:none;stroke-opacity:1" />
      <circle
         r="1.016466"
         cy="408.06097"
         cx="405.02423"
         id="path4356"
         style="opacity:1;fill:#646464;fill-opacity:1;fill-rule:nonzero;stroke:#000032;stroke-width:1;stroke-miterlimit:4;stroke-dasharray:none;stroke-opacity:1" />
      <circle
         r="1.016466"
         cy="408.06097"
         cx="418.53061"
         id="path4356-8"
         style="opacity:1;fill:#646464;fill-opacity:1;fill-rule:nonzero;stroke:#000032;stroke-width:1;stroke-miterlimit:4;stroke-dasharray:none;stroke-opacity:1" />
      <circle
         r="1.016466"
         cy="408.06097"
         cx="432.03699"
         id="path4356-0"
         style="opacity:1;fill:#646464;fill-opacity:1;fill-rule:nonzero;stroke:#000032;stroke-width:1;stroke-miterlimit:4;stroke-dasharray:none;stroke-opacity:1" />
      <circle
         r="1.016466"
         cy="408.06097"
         cx="459.04974"
         id="path4356-1"
         style="opacity:1;fill:#646464;fill-opacity:1;fill-rule:nonzero;stroke:#000032;stroke-width:1;stroke-miterlimit:4;stroke-dasharray:none;stroke-opacity:1" />
      <circle
         r="1.016466"
         cy="408.06097"
         cx="472.55612"
         id="path4356-7"
         style="opacity:1;fill:#646464;fill-opacity:1;fill-rule:nonzero;stroke:#000032;stroke-width:1;stroke-miterlimit:4;stroke-dasharray:none;stroke-opacity:1" />
      <circle
         r="1.016466"
         cy="407.68597"
         cx="486.0625"
         id="path4356-2"
         style="opacity:1;fill:#646464;fill-opacity:1;fill-rule:nonzero;stroke:#000032;stroke-width:1;stroke-miterlimit:4;stroke-dasharray:none;stroke-opacity:1" />
      <circle
         r="1.016466"
         cy="439.04727"
         cx="486.0625"
         id="path4356-73"
         style="opacity:1;fill:#646464;fill-opacity:1;fill-rule:nonzero;stroke:#000032;stroke-width:1;stroke-miterlimit:4;stroke-dasharray:none;stroke-opacity:1" />
      <circle
         r="1.016466"
         cy="422.77408"
         cx="486.0625"
         id="path4356-73-4"
         style="opacity:1;fill:#646464;fill-opacity:1;fill-rule:nonzero;stroke:#000032;stroke-width:1;stroke-miterlimit:4;stroke-dasharray:none;stroke-opacity:1" />
      <circle
         r="1.016466"
         cy="439.04727"
         cx="404.89923"
         id="path4356-73-1"
         style="opacity:1;fill:#646464;fill-opacity:1;fill-rule:nonzero;stroke:#000032;stroke-width:1;stroke-miterlimit:4;stroke-dasharray:none;stroke-opacity:1" />
      <circle
         r="1.016466"
         cy="423.00562"
         cx="405.02423"
         id="path4356-73-4-0"
         style="opacity:1;fill:#646464;fill-opacity:1;fill-rule:nonzero;stroke:#000032;stroke-width:1;stroke-miterlimit:4;stroke-dasharray:none;stroke-opacity:1" />
      <circle
         r="1.016466"
         cy="460.59378"
         cx="465.78125"
         id="path4356-2-2"
         style="opacity:1;fill:#646464;fill-opacity:1;fill-rule:nonzero;stroke:#000032;stroke-width:1;stroke-miterlimit:4;stroke-dasharray:none;stroke-opacity:1" />
      <circle
         r="1.016466"
         cy="481.57532"
         cx="445.74042"
         id="path4356-73-2"
         style="opacity:1;fill:#646464;fill-opacity:1;fill-rule:nonzero;stroke:#000032;stroke-width:1;stroke-miterlimit:4;stroke-dasharray:none;stroke-opacity:1" />
      <circle
         r="1.016466"
         cy="471.64703"
         cx="454.89062"
         id="path4356-73-4-2"
         style="opacity:1;fill:#646464;fill-opacity:1;fill-rule:nonzero;stroke:#000032;stroke-width:1;stroke-miterlimit:4;stroke-dasharray:none;stroke-opacity:1" />
      <circle
         r="1.016466"
         cy="450.6655"
         cx="476.04688"
         id="path4356-2-2-4"
         style="opacity:1;fill:#646464;fill-opacity:1;fill-rule:nonzero;stroke:#000032;stroke-width:1;stroke-miterlimit:4;stroke-dasharray:none;stroke-opacity:1" />
      <circle
         transform="scale(-1,1)"
         r="1.016466"
         cy="458.92471"
         cx="-423.9375"
         id="path4356-2-2-44"
         style="opacity:1;fill:#646464;fill-opacity:1;fill-rule:nonzero;stroke:#000032;stroke-width:1;stroke-miterlimit:4;stroke-dasharray:none;stroke-opacity:1" />
      <circle
         transform="scale(-1,1)"
         r="1.016466"
         cy="469.97797"
         cx="-434.82812"
         id="path4356-73-4-2-5"
         style="opacity:1;fill:#646464;fill-opacity:1;fill-rule:nonzero;stroke:#000032;stroke-width:1;stroke-miterlimit:4;stroke-dasharray:none;stroke-opacity:1" />
      <circle
         transform="scale(-1,1)"
         r="1.016466"
         cy="448.99643"
         cx="-413.67188"
         id="path4356-2-2-4-0"
         style="opacity:1;fill:#646464;fill-opacity:1;fill-rule:nonzero;stroke:#000032;stroke-width:1;stroke-miterlimit:4;stroke-dasharray:none;stroke-opacity:1" />
      <path
         sodipodi:nodetypes="cc"
         inkscape:connector-curvature="0"
         id="path4515"
         d="m 445.25,410.2372 0.5,67.875"
         style="fill:#966432;fill-opacity:1;fill-rule:evenodd;stroke:#966432;stroke-width:9;stroke-linecap:butt;stroke-linejoin:miter;stroke-miterlimit:4;stroke-dasharray:none;stroke-opacity:1" />
      <path
         inkscape:connector-curvature="0"
         id="path4517"
         d="m 407.375,438.9872 c 75.875,0 76.125,0.125 76.125,0.125"
         style="fill:none;fill-rule:evenodd;stroke:#966432;stroke-width:9;stroke-linecap:butt;stroke-linejoin:miter;stroke-miterlimit:4;stroke-dasharray:none;stroke-opacity:1" />
      <circle
         transform="scale(-1,1)"
         r="1.016466"
         cy="463.48721"
         cx="-445.74042"
         id="path4356-2-2-44-7"
         style="opacity:1;fill:#646464;fill-opacity:1;fill-rule:nonzero;stroke:#000032;stroke-width:1;stroke-miterlimit:4;stroke-dasharray:none;stroke-opacity:1" />
      <circle
         transform="scale(-1,1)"
         r="1.016466"
         cy="439.04727"
         cx="-445.48087"
         id="path4356-2-2-44-6"
         style="opacity:1;fill:#646464;fill-opacity:1;fill-rule:nonzero;stroke:#000032;stroke-width:1;stroke-miterlimit:4;stroke-dasharray:none;stroke-opacity:1" />
      <circle
         transform="scale(-1,1)"
         r="1.016466"
         cy="439.04727"
         cx="-418.42645"
         id="path4356-2-2-44-1"
         style="opacity:1;fill:#646464;fill-opacity:1;fill-rule:nonzero;stroke:#000032;stroke-width:1;stroke-miterlimit:4;stroke-dasharray:none;stroke-opacity:1" />
      <circle
         transform="scale(-1,1)"
         r="1.016466"
         cy="417.48721"
         cx="-445.74042"
         id="path4356-2-2-44-4"
         style="opacity:1;fill:#646464;fill-opacity:1;fill-rule:nonzero;stroke:#000032;stroke-width:1;stroke-miterlimit:4;stroke-dasharray:none;stroke-opacity:1" />
      <circle
         transform="scale(-1,1)"
         r="1.016466"
         cy="439.04727"
         cx="-472.53528"
         id="path4356-2-2-44-8"
         style="opacity:1;fill:#646464;fill-opacity:1;fill-rule:nonzero;stroke:#000032;stroke-width:1;stroke-miterlimit:4;stroke-dasharray:none;stroke-opacity:1" />
      <circle
         transform="scale(-1,1)"
         r="1.016466"
         cy="439.04727"
         cx="-459.00809"
         id="path4356-2-2-44-2"
         style="opacity:1;fill:#646464;fill-opacity:1;fill-rule:nonzero;stroke:#000032;stroke-width:1;stroke-miterlimit:4;stroke-dasharray:none;stroke-opacity:1" />
      <circle
         transform="scale(-1,1)"
         r="1.016466"
         cy="439.04727"
         cx="-431.95364"
         id="path4356-2-2-44-9"
         style="opacity:1;fill:#646464;fill-opacity:1;fill-rule:nonzero;stroke:#000032;stroke-width:1;stroke-miterlimit:4;stroke-dasharray:none;stroke-opacity:1" />
      <circle
         transform="scale(-1,1)"
         r="1.016466"
         cy="427.48721"
         cx="-445.74042"
         id="path4356-2-2-44-3"
         style="opacity:1;fill:#646464;fill-opacity:1;fill-rule:nonzero;stroke:#000032;stroke-width:1;stroke-miterlimit:4;stroke-dasharray:none;stroke-opacity:1" />
      <circle
         transform="scale(-1,1)"
         r="1.016466"
         cy="451.73721"
         cx="-445.74042"
         id="path4356-2-2-44-29"
         style="opacity:1;fill:#646464;fill-opacity:1;fill-rule:nonzero;stroke:#000032;stroke-width:1;stroke-miterlimit:4;stroke-dasharray:none;stroke-opacity:1" />
      <circle
         transform="scale(-1,1)"
         r="1.016466"
         cy="407.73721"
         cx="-445.74042"
         id="path4356-2-2-44-82"
         style="opacity:1;fill:#646464;fill-opacity:1;fill-rule:nonzero;stroke:#000032;stroke-width:1;stroke-miterlimit:4;stroke-dasharray:none;stroke-opacity:1" />
      <circle
         transform="scale(-1,1)"
         r="1.016466"
         cy="474.11221"
         cx="-445.74042"
         id="path4356-2-2-44-87"
         style="opacity:1;fill:#646464;fill-opacity:1;fill-rule:nonzero;stroke:#000032;stroke-width:1;stroke-miterlimit:4;stroke-dasharray:none;stroke-opacity:1" />
    </g>
    <path
       style="fill:#ffdead;fill-opacity:1;fill-rule:evenodd;stroke:#000000;stroke-width:2.55;stroke-linecap:butt;stroke-linejoin:miter;stroke-miterlimit:4;stroke-dasharray:none;stroke-opacity:1"
       d="m 362.4629,424.51578 3.84539,20.9308 5.02148,17.32893 c 3.04803,2.05396 6.82618,2.15544 9.07563,1.56706 2.24941,-0.58839 3.89435,-2.2919 5.37259,-5.4272 l -6.64543,-18.11066 -2.41678,-15.34453"
       id="path4174"
       inkscape:connector-curvature="0"
       sodipodi:nodetypes="cccsccc" />
    <g
       id="g4202"
       transform="matrix(0.52549016,0.85079968,-0.85079968,0.52549016,648.38335,-59.299665)">
      <g
         id="g4215"
         transform="matrix(0.99955259,0.02991022,-0.02991022,0.99955259,15.578822,-8.4873705)">
        <path
           style="fill:#e6e6e6;fill-opacity:1;fill-rule:evenodd;stroke:#000000;stroke-width:1.11430275px;stroke-linecap:butt;stroke-linejoin:miter;stroke-opacity:1"
           d="m 300.82572,508.27376 0.54145,-16.57255 6.05353,0.19778 9.25012,-6.93396 -8.49344,-2.75368 -3.00921,3.90421 -4.93377,-0.16119 2.93578,-89.85812 -3.50523,-7.14818 -3.96434,6.90414 -2.93578,89.85812 -4.93377,-0.1612 -2.74796,-4.0923 -8.65506,2.19342 8.77779,7.52294 6.05353,0.19778 -0.54144,16.57254 5.0539,0.16513 z"
           id="path5107-5"
           inkscape:connector-curvature="0"
           sodipodi:nodetypes="ccccccccccccccccccc" />
        <path
           style="fill:#800080;fill-rule:evenodd;stroke:#000000;stroke-width:1px;stroke-linecap:butt;stroke-linejoin:miter;stroke-opacity:1"
           d="m 292.75023,485.80483 7.48692,0.24461"
           id="path5163"
           inkscape:connector-curvature="0" />
        <path
           inkscape:connector-curvature="0"
           id="path4211"
           d="m 295.80569,507.5385 c -2.43809,-0.0793 -4.44704,-0.15229 -4.46432,-0.16206 -0.0172,-0.01 0.09,-3.73506 0.23834,-8.27816 0.14836,-4.5431 0.26901,-8.26465 0.26819,-8.27007 -8e-4,-0.006 -1.4469,-0.0573 -3.21317,-0.11509 l -3.2114,-0.10516 -3.81463,-3.26827 c -2.09804,-1.79755 -3.85039,-3.29932 -3.89413,-3.33729 l -0.0798,-0.0687 3.22256,-0.81646 c 1.77241,-0.44906 3.39239,-0.8592 3.59996,-0.91143 l 0.37738,-0.095 1.34262,2.00004 1.34262,2.00001 2.57843,0.0841 c 1.41814,0.0463 2.59606,0.0928 2.61756,0.10443 0.0515,0.0273 7.44777,0.26794 7.50147,0.24452 0.0228,-0.0101 1.20426,0.0202 2.62528,0.0672 l 2.58367,0.0853 0.20193,-0.24904 c 0.1111,-0.13694 0.49749,-0.63405 0.85862,-1.1047 0.86607,-1.12835 1.89898,-2.46326 1.90556,-2.4627 0.0394,0.003 7.02705,2.28385 7.02867,2.2938 7.7e-4,0.007 -1.83921,1.39377 -4.08989,3.08034 l -4.09213,3.0665 -3.16133,-0.10228 c -1.73872,-0.0561 -3.18402,-0.10426 -3.21178,-0.10694 -0.0385,-0.004 -0.11462,1.95565 -0.32082,8.25795 -0.14872,4.54469 -0.27834,8.2744 -0.2885,8.28823 -0.0105,0.0139 -2.01297,-0.0396 -4.45108,-0.11891 z"
           style="opacity:1;fill:#800080;fill-opacity:1;fill-rule:nonzero;stroke:none;stroke-width:0.03125;stroke-miterlimit:4;stroke-dasharray:none;stroke-opacity:1" />
        <path
           inkscape:connector-curvature="0"
           id="path4213"
           d="m 300.00049,507.65015 c -2.62231,-0.0685 -8.55655,-0.26615 -8.61423,-0.28744 -0.0179,-0.007 -0.033,-0.0813 -0.0333,-0.16631 -0.002,-0.52594 0.19138,-6.80088 0.42781,-13.90885 0.0434,-1.30377 0.0762,-2.39454 0.0722,-2.42395 -0.005,-0.0423 -0.67905,-0.0759 -3.21376,-0.16083 -2.47829,-0.083 -3.2221,-0.11978 -3.27159,-0.16201 -2.93674,-2.50467 -7.58584,-6.49263 -7.6269,-6.54228 -0.0544,-0.0657 0.0537,-0.0957 3.48244,-0.96421 1.94618,-0.49299 3.55415,-0.89923 3.57325,-0.90275 0.019,-0.003 0.63779,0.89179 1.37489,1.98959 l 1.34016,1.99599 2.52515,0.0905 c 1.3888,0.0504 2.98649,0.11168 3.55039,0.137 1.30146,0.0585 5.73608,0.19641 6.84325,0.21287 0.46273,0.007 1.77372,0.0433 2.91331,0.0812 l 2.07197,0.0687 0.12541,-0.14072 c 0.069,-0.0774 0.67862,-0.86008 1.35475,-1.73928 0.67613,-0.87919 1.29372,-1.67396 1.37251,-1.76611 l 0.14309,-0.16763 1.69128,0.54969 c 2.98738,0.97094 5.27241,1.7226 5.27443,1.73501 0.002,0.0158 -0.99028,0.76657 -3.91554,2.96122 -1.31055,0.98322 -2.7951,2.09715 -3.29904,2.4754 l -0.91624,0.68773 -0.78926,-0.0218 c -0.43408,-0.0122 -1.86823,-0.058 -3.18697,-0.10212 -1.31873,-0.0441 -2.40529,-0.0706 -2.4146,-0.0578 -0.0342,0.0457 -0.13436,2.63959 -0.34475,8.94447 -0.19816,5.94258 -0.25671,7.54173 -0.27623,7.56654 -0.0104,0.0128 -0.11546,0.0207 -0.23429,0.0177 z"
           style="opacity:1;fill:#800080;fill-opacity:1;fill-rule:nonzero;stroke:none;stroke-width:1;stroke-miterlimit:4;stroke-dasharray:none;stroke-opacity:1" />
      </g>
    </g>
    <path
       style="fill:#ffdead;fill-opacity:1;fill-rule:evenodd;stroke:#000000;stroke-width:2.54999995;stroke-linecap:butt;stroke-linejoin:miter;stroke-miterlimit:4;stroke-dasharray:none;stroke-opacity:1"
       d="m 380.31857,443.77574 5.92614,14.10652 c 1.61273,8.83572 -1.26214,7.64651 -2.56547,4.25029 0,0 -1.15071,7.84188 -3.76913,1.56288 0,0 -1.461,6.10478 -4.01438,0.52804 -2.55338,-5.57674 -9.8e-4,10.2465 -5.21422,-1.85364 -1.4195,-4.62695 -3.1912,-13.73648 -3.60716,-14.36658"
       id="path4208"
       inkscape:connector-curvature="0"
       sodipodi:nodetypes="ccssccc" />
  </g>
</svg>
